<?xml version="1.0" encoding="UTF-8"?>
<svg version="1.1" xmlns="http://www.w3.org/2000/svg" width="288" height="229">
<path d="M0 0 C95.04 0 190.08 0 288 0 C288 75.57 288 151.14 288 229 C192.96 229 97.92 229 0 229 C0 153.43 0 77.86 0 0 Z " fill="#480028" transform="translate(0,0)"/>
<path d="M0 0 C4.62 0 9.24 0 14 0 C13.76174182 7.50513282 11.88709198 12.24976491 7 18 C6.01 18.66 5.02 19.32 4 20 C7.63 20.33 11.26 20.66 15 21 C15 25.29 15 29.58 15 34 C4.44 34 -6.12 34 -17 34 C-17 29.71 -17 25.42 -17 21 C-15.948125 20.773125 -14.89625 20.54625 -13.8125 20.3125 C-9.0775123 18.9282798 -6.42074555 16.3200727 -3.83984375 12.10546875 C-1.56545774 7.84201397 -0.83310525 4.9986315 0 0 Z " fill="#F54E56" transform="translate(170,87)"/>
<path d="M0 0 C10.56 0 21.12 0 32 0 C32 4.29 32 8.58 32 13 C30.783125 13.20625 29.56625 13.4125 28.3125 13.625 C23.62428072 14.80119636 21.71353473 16.96846268 19 21 C16.42587994 25.32084439 15.49951388 29.00486117 15 34 C10.38 34 5.76 34 1 34 C1.32205747 27.12944055 2.51896625 22.33859008 7 17 C8.32 16.01 9.64 15.02 11 14 C7.37 13.67 3.74 13.34 0 13 C0 8.71 0 4.42 0 0 Z " fill="#F54E56" transform="translate(101,108)"/>
<path d="M0 0 C4.29 0 8.58 0 13 0 C13 10.23 13 20.46 13 31 C8.71 31 4.42 31 0 31 C-0.185625 29.96875 -0.37125 28.9375 -0.5625 27.875 C-1.94066517 23.11406577 -4.91340769 20.620836 -9 18 C-12.86885438 16.14842537 -16.84021803 15.03994549 -21 14 C-21 9.71 -21 5.42 -21 1 C-15.05995975 0.50499665 -10.93892587 1.59028131 -6 5 C-4.08021386 6.90123748 -2.59770305 8.80315831 -1 11 C-0.67 7.37 -0.34 3.74 0 0 Z " fill="#F64F56" transform="translate(137,73)"/>
<path d="M0 0 C4.29 0 8.58 0 13 0 C13.185625 1.03125 13.37125 2.0625 13.5625 3.125 C14.93208456 7.88961109 17.96847685 10.32046239 22 13 C25.89892536 15.1274391 29.61445307 16.12289061 34 17 C34 21.29 34 25.58 34 30 C26.20787072 29.78355196 21.61492969 28.53235719 16 23 C15.34 22.01 14.68 21.02 14 20 C13.67 23.63 13.34 27.26 13 31 C8.71 31 4.42 31 0 31 C0 20.77 0 10.54 0 0 Z " fill="#F74F57" transform="translate(136,125)"/>
</svg>
